<svg width="204" height="104" viewBox="0 0 204 104" fill="none" xmlns="http://www.w3.org/2000/svg">
<g clip-path="url(#clip0_913_1288)">
<path d="M142.023 39.9296C142.023 39.9296 140.024 38.6438 139.818 38.5134C135.458 45.1345 128.227 49.1159 120.535 49.4886C124.982 47.3519 128.763 44.0476 131.46 39.9296L129.242 38.5072C125.742 43.824 120.286 47.5755 114.045 48.9482C113.989 48.9358 113.933 48.9233 113.876 48.9109C112.911 48.6935 111.971 48.414 111.055 48.091C119.513 42.8426 124.396 33.3892 123.767 23.4886C123.138 13.5755 117.09 4.81154 108.015 0.668687C106.109 1.53825 104.341 2.61279 102.734 3.84881C101.096 2.58794 99.3204 1.51962 97.4394 0.662476C87.8661 5.02894 81.6999 14.5134 81.6189 24.9917C81.5442 34.4513 86.446 43.1718 94.3936 48.1035C93.422 48.4513 92.4254 48.737 91.4226 48.9606H91.4102C85.3249 47.6252 79.8002 43.9917 76.2001 38.5196L73.9828 39.942C76.7669 44.1904 80.5788 47.4202 84.9014 49.4948C77.0783 49.1035 69.9218 45.0165 65.6365 38.4948C65.6241 38.501 65.6116 38.5072 65.6116 38.5072C65.6116 38.5072 63.6123 39.7929 63.4067 39.9233C69.4609 49.1594 80.5476 53.8115 91.4164 51.6625C95.1037 52.3954 98.9591 52.3643 102.734 51.5072C106.452 52.3519 110.308 52.4016 114.045 51.6625C124.864 53.8053 135.975 49.2091 142.048 39.9544C142.036 39.9482 142.023 39.942 142.023 39.942V39.9296ZM108.009 3.60657C116.1 7.79912 121.176 16.1159 121.176 25.1842C121.176 34.2525 116.106 42.5631 108.015 46.7619C106.888 46.178 105.811 45.5134 104.801 44.7681C110.202 39.6687 113.26 32.5942 113.26 25.1904C113.26 17.7867 110.202 10.706 104.801 5.61279C105.811 4.87366 106.882 4.20285 108.015 3.619L108.009 3.60657ZM102.74 7.30844C107.754 11.9171 110.606 18.3954 110.606 25.178C110.606 31.9606 107.741 38.4575 102.727 43.0662C98.5917 39.2712 95.7951 34.091 95.0476 28.2836C94.0199 20.3395 96.9909 12.5507 102.727 7.29602L102.74 7.30844ZM97.4269 46.7619C90.3326 43.091 85.3685 36.1221 84.4155 27.9917C83.2383 17.9606 88.4143 8.25254 97.4269 3.59415C98.5543 4.178 99.6318 4.84881 100.653 5.59415C94.7237 11.1966 91.5161 19.3022 92.3195 27.7184C92.9548 34.3705 96.0068 40.3643 100.653 44.7556C99.6381 45.501 98.5605 46.1718 97.4394 46.7494H97.4207L97.4269 46.7619ZM102.709 48.7618C101.949 48.5693 101.201 48.3395 100.473 48.0848C101.251 47.6004 102.005 47.0786 102.727 46.5196C103.45 47.0724 104.197 47.5942 104.97 48.0724C104.222 48.3395 103.469 48.5693 102.715 48.7618H102.709Z" fill="black"/>
<path d="M0.100098 93.1097H17.1413V90.4824H2.75345V80.9793H15.5032V78.3271H2.75345V62.7557H17.1413V60.0973H0.100098V93.1097Z" fill="black"/>
<path d="M29.4676 60.0973H26.7893V93.1097H29.4676V60.0973Z" fill="black"/>
<path d="M57.2343 71.8053C55.7021 70.4389 53.8024 69.4389 51.666 68.9668C45.7116 67.6625 39.6948 70.8675 37.5086 76.5072C35.3224 82.147 37.6332 88.5196 42.9336 91.4948C48.2279 94.4699 54.9173 93.1594 58.6794 88.4265C58.4925 88.2774 56.7174 86.8737 56.6053 86.7867C54.1575 89.8737 50.0591 91.1718 46.2597 90.0538C42.4603 88.9358 39.7322 85.6376 39.3834 81.7246H61.2891C61.5632 77.855 59.9749 74.2401 57.2343 71.7929V71.8053ZM39.5142 79.1097C40.3737 74.588 44.36 71.3085 49.0065 71.3085C53.6529 71.3085 55.3159 72.9855 57.0599 75.5942C57.7575 76.6314 58.2558 77.8178 58.4987 79.1097H39.5142Z" fill="black"/>
<path d="M115.957 73.3209C112.911 69.501 107.866 67.8426 103.12 69.0973C98.3737 70.3519 94.8297 74.2898 94.1134 79.1097H89.9777V68.6811H87.2994V73.2836C84.0419 69.2277 78.5546 67.6563 73.6154 69.3581C68.6699 71.0662 65.3501 75.6873 65.3501 80.8799C65.3501 86.0724 68.6637 90.6998 73.6154 92.4016C78.5546 94.1035 84.0419 92.5321 87.2994 88.4762V92.4389C86.9506 96.2774 84.3035 99.4886 80.5851 100.613C76.8666 101.731 72.8368 100.507 70.389 97.5134C70.3827 97.5196 70.3765 97.5258 70.3765 97.5258C70.3765 97.5258 68.5765 98.9917 68.3398 99.1842C71.4914 103.029 76.6985 104.582 81.4695 103.091C86.2593 101.594 89.6413 97.3395 89.9777 92.3706V81.7308H94.0138C94.3688 86.7495 97.8007 91.0414 102.653 92.5321C107.517 94.029 112.805 92.4016 115.963 88.4389V93.1035H118.616V68.6687H115.963V73.3085L115.957 73.3209ZM77.4833 90.4575C72.407 90.3644 68.2713 86.3954 68.0159 81.3706C67.7605 76.3457 71.4665 71.9793 76.5116 71.3768C81.563 70.7743 86.2219 74.1532 87.1624 79.1097H74.6368V81.737H87.2932C86.8447 86.7432 82.5657 90.5507 77.4895 90.4575H77.4833ZM115.944 81.3706C115.689 86.3954 111.547 90.3644 106.477 90.4575C101.407 90.5507 97.128 86.7432 96.6733 81.737H109.299V79.1097H96.8041C97.7446 74.1532 102.404 70.7743 107.455 71.3768C112.494 71.9793 116.206 76.3457 115.944 81.3706Z" fill="black"/>
<path d="M175.477 68.7495C168.899 68.0414 162.926 72.6128 161.961 79.1035H154.605V60.0911H151.927V79.1035H145.281C145.517 74.8116 142.945 70.8861 138.946 69.3333C135.11 67.8426 130.743 68.8364 127.947 71.8364V68.6749H125.268V93.1097H127.947V78.6004C127.947 76.0103 129.367 73.6004 131.634 72.3022C133.901 71.0041 136.692 71.0041 138.953 72.3022C141.369 73.6811 142.796 76.3147 142.596 79.1035H134.605V81.7308H142.615V93.1097H145.268V81.7308H151.927V83.1967C151.927 85.824 152.979 88.3457 154.854 90.2091C156.729 92.0662 159.264 93.1097 161.911 93.1159V90.4886C161.911 90.4886 161.911 90.4762 161.911 90.4575C157.887 90.4327 154.636 87.1967 154.636 83.2029V81.737H161.861C162.216 86.7743 165.66 91.0662 170.531 92.5507C175.396 94.0289 180.671 92.3954 183.817 88.4327C183.624 88.2774 181.743 86.7929 181.743 86.7929C179.295 89.8799 175.196 91.178 171.397 90.06C167.598 88.942 164.869 85.6439 164.521 81.7308H186.426C186.887 75.1904 182.054 69.4575 175.477 68.7495ZM183.611 79.1035H164.651C165.511 74.5817 169.497 71.3022 174.144 71.3022C178.79 71.3022 180.453 72.9793 182.197 75.588C182.895 76.6252 183.393 77.8116 183.636 79.1035H183.605H183.611Z" fill="black"/>
<path d="M203.1 68.6501C200.322 68.6625 197.675 69.8178 195.794 71.8426V68.6811H193.116V93.1159H195.794V78.5942C195.794 76.6687 196.566 74.824 197.937 73.4637C199.307 72.1035 201.163 71.3395 203.1 71.3395V68.6811C203.1 68.6811 203.1 68.6687 203.1 68.6563V68.6501Z" fill="black"/>
</g>
<defs>
<clipPath id="clip0_913_1288">
<rect width="203" height="103" fill="white" transform="translate(0.100098 0.650024)"/>
</clipPath>
</defs>
</svg>
