<svg width="512" height="512" viewBox="0 0 512 512" fill="none" xmlns="http://www.w3.org/2000/svg">
<rect width="512" height="512" fill="black"/>
<path d="M456.873 325.211C456.873 325.211 446.652 318.622 445.602 317.954C423.314 351.882 386.349 372.283 347.028 374.192C369.761 363.244 389.087 346.312 402.874 325.211L391.539 317.922C373.645 345.166 345.754 364.39 313.852 371.424C313.565 371.36 313.278 371.296 312.992 371.233C308.057 370.119 303.249 368.686 298.569 367.031C341.806 340.138 366.768 291.697 363.552 240.964C360.337 190.168 329.421 145.26 283.031 124.032C273.289 128.488 264.246 133.994 256.032 140.327C247.658 133.866 238.584 128.392 228.969 124C180.032 146.374 148.511 194.974 148.097 248.667C147.715 297.139 172.773 341.824 213.399 367.095C208.432 368.877 203.338 370.341 198.212 371.487H198.148C167.042 364.644 138.8 346.026 120.397 317.986L109.063 325.274C123.295 347.044 142.78 363.594 164.877 374.224C124.887 372.219 88.3036 351.277 66.3984 317.859C66.3347 317.89 66.271 317.922 66.271 317.922C66.271 317.922 56.0507 324.51 55 325.179C85.9476 372.506 142.621 396.344 198.18 385.332C217.029 389.088 236.737 388.928 256.032 384.536C275.04 388.865 294.748 389.119 313.852 385.332C369.156 396.312 425.957 372.76 457 325.338C456.936 325.306 456.873 325.274 456.873 325.274V325.211ZM283 139.086C324.358 160.569 350.307 203.186 350.307 249.653C350.307 296.121 324.39 338.705 283.031 360.22C277.268 357.229 271.76 353.823 266.602 350.004C294.207 323.874 309.84 287.623 309.84 249.685C309.84 211.747 294.207 175.464 266.602 149.366C271.76 145.579 277.237 142.141 283.031 139.15L283 139.086ZM256.064 158.055C281.694 181.671 296.276 214.866 296.276 249.621C296.276 284.377 281.63 317.668 256 341.283C234.859 321.837 220.563 295.293 216.742 265.535C211.489 224.828 226.676 184.917 256 157.991L256.064 158.055ZM228.905 360.22C192.64 341.411 167.265 305.701 162.393 264.039C156.376 212.638 182.834 162.893 228.905 139.022C234.668 142.014 240.176 145.451 245.398 149.271C215.087 177.979 198.69 219.513 202.797 262.639C206.045 296.725 221.646 327.439 245.398 349.94C240.208 353.759 234.7 357.197 228.969 360.157H228.873L228.905 360.22ZM255.904 370.469C252.02 369.482 248.199 368.304 244.474 367C248.454 364.517 252.307 361.844 256 358.979C259.693 361.812 263.514 364.485 267.462 366.936C263.641 368.304 259.789 369.482 255.936 370.469H255.904Z" fill="white"/>
</svg>
