<svg width="192" height="192" viewBox="0 0 192 192" fill="none" xmlns="http://www.w3.org/2000/svg">
<rect width="192" height="192" fill="black"/>
<path d="M171.952 122.454C171.952 122.454 168.113 119.983 167.719 119.733C159.347 132.456 145.462 140.106 130.692 140.822C139.231 136.716 146.49 130.367 151.669 122.454L147.411 119.721C140.69 129.937 130.214 137.146 118.23 139.784C118.123 139.76 118.015 139.736 117.907 139.712C116.054 139.294 114.248 138.757 112.49 138.137C128.731 128.052 138.107 109.886 136.899 90.8617C135.691 71.8132 124.078 54.9727 106.654 47.0119C102.994 48.6829 99.5975 50.7476 96.512 53.1227C93.3666 50.6999 89.9582 48.6471 86.3464 47C67.9648 55.3904 56.1249 73.6154 55.9694 93.75C55.8259 111.927 65.238 128.684 80.4983 138.161C78.6326 138.829 76.7191 139.378 74.7936 139.808H74.7697C63.0853 137.242 52.4773 130.26 45.5647 119.745L41.3071 122.478C46.653 130.641 53.9722 136.848 62.2721 140.834C47.251 140.082 33.5096 132.229 25.2815 119.697C25.2576 119.709 25.2336 119.721 25.2336 119.721C25.2336 119.721 21.3947 122.191 21 122.442C32.6246 140.19 53.9124 149.129 74.7816 144.999C81.8616 146.408 89.2645 146.348 96.512 144.701C103.652 146.324 111.055 146.42 118.23 144.999C139.004 149.117 160.34 140.285 172 122.502C171.976 122.49 171.952 122.478 171.952 122.478V122.454ZM106.642 52.6573C122.177 60.7135 131.924 76.6946 131.924 94.12C131.924 111.545 122.189 127.514 106.654 135.583C104.489 134.461 102.42 133.184 100.482 131.751C110.851 121.953 116.723 108.359 116.723 94.1319C116.723 79.9052 110.851 66.2991 100.482 56.5123C102.42 55.092 104.477 53.803 106.654 52.6811L106.642 52.6573ZM96.5239 59.7706C106.151 68.6265 111.629 81.0748 111.629 94.108C111.629 107.141 106.127 119.625 96.5 128.481C88.5589 121.189 83.1891 111.235 81.754 100.076C79.7807 84.8105 85.4853 69.8439 96.5 59.7467L96.5239 59.7706ZM86.3225 135.583C72.7007 128.529 63.169 115.138 61.3392 99.5146C59.0789 80.2394 69.0172 61.5847 86.3225 52.6334C88.4872 53.7553 90.5562 55.0443 92.5175 56.4765C81.1321 67.242 74.973 82.8174 76.5158 98.9895C77.7356 111.772 83.5958 123.289 92.5175 131.728C90.5681 133.16 88.4991 134.449 86.3464 135.559H86.3105L86.3225 135.583ZM96.4641 139.426C95.0051 139.056 93.5699 138.614 92.1707 138.125C93.6656 137.194 95.1127 136.191 96.5 135.117C97.8873 136.179 99.3224 137.182 100.805 138.101C99.3703 138.614 97.9232 139.056 96.4761 139.426H96.4641Z" fill="white"/>
</svg>
