<svg width="170" height="80" viewBox="0 0 170 80" fill="none" xmlns="http://www.w3.org/2000/svg">
<rect width="170" height="80" fill="white"/>
<g clip-path="url(#clip0_898_1234)">
<path d="M10 48.5581C10 48.3592 10.0672 48.2928 10.2687 48.2928H22.2929C22.4944 48.2928 22.5616 48.3592 22.5616 48.5581V48.6908C22.5616 48.8897 22.4944 48.9561 22.2929 48.9561H10.7389V62.2868H21.3524C21.554 62.2868 21.6211 62.3531 21.6211 62.5521V62.6848C21.6211 62.8837 21.554 62.95 21.3524 62.95H10.7389V70.7097H22.5616C22.7631 70.7097 22.8303 70.7761 22.8303 70.975V71.1077C22.8303 71.3066 22.7631 71.373 22.5616 71.373H10.2687C10.0672 71.373 10 71.3066 10 71.1077V48.5581Z" fill="#222230"/>
<path d="M30.7568 47.5633C30.7568 47.3644 30.824 47.298 31.0255 47.298H31.2271C31.4286 47.298 31.4958 47.3644 31.4958 47.5633V71.1077C31.4958 71.3066 31.4286 71.373 31.2271 71.373H31.0255C30.824 71.373 30.7568 71.3066 30.7568 71.1077V47.5633Z" fill="#222230"/>
<path d="M37.4741 62.8837C37.4741 64.3428 37.8099 65.6692 38.4817 66.9294C39.1534 68.1895 40.0939 69.1843 41.3702 69.9139C42.6465 70.6434 43.99 71.0413 45.6021 71.0413C47.2143 71.0413 47.9532 70.776 49.028 70.2455C50.1028 69.7149 51.0433 68.9853 51.7822 68.0568C51.9165 67.9242 51.9837 67.9242 52.118 68.0568L52.2524 68.1895C52.3867 68.3221 52.3867 68.4548 52.2524 68.5874C51.4463 69.5159 50.4387 70.3118 49.2967 70.8424C48.0876 71.4393 46.8785 71.7046 45.535 71.7046C44.1915 71.7046 43.0495 71.4393 41.9747 70.975C40.8328 70.5108 39.8923 69.8475 39.1534 69.0517C38.4145 68.2558 37.8099 67.261 37.3397 66.1998C36.9367 65.1387 36.668 63.9449 36.668 62.7511C36.668 61.5573 37.0038 59.6339 37.7428 58.3075C38.4817 56.9147 39.4893 55.8536 40.8328 55.0577C42.1763 54.2618 43.6541 53.8639 45.2663 53.8639C46.8785 53.8639 48.2891 54.2618 49.5654 54.9914C50.8417 55.7209 51.8493 56.7821 52.5211 58.0422C53.26 59.3023 53.5959 60.7614 53.5959 62.2868C53.5959 63.8122 53.5959 62.4858 53.5959 62.6847C53.5959 62.8174 53.4615 62.95 53.3272 62.95H37.4069L37.4741 62.8837ZM45.4006 54.5271C43.99 54.5271 42.7136 54.8587 41.5045 55.5883C40.2954 56.3178 39.3549 57.2463 38.6832 58.3738C38.0115 59.5676 37.6084 60.8277 37.4741 62.2205H52.9241C52.857 59.9655 52.118 58.1748 50.7074 56.7157C49.2967 55.2567 47.483 54.5271 45.4006 54.5271Z" fill="#222230"/>
<path d="M130.578 62.8837C130.578 64.3428 130.913 65.6692 131.585 66.9294C132.257 68.1895 133.197 69.1843 134.474 69.9139C135.75 70.6434 137.093 71.0413 138.706 71.0413C140.318 71.0413 141.057 70.776 142.132 70.2455C143.206 69.7149 144.147 68.9853 144.886 68.0568C145.02 67.9242 145.087 67.9242 145.222 68.0568L145.356 68.1895C145.49 68.3221 145.49 68.4548 145.356 68.5874C144.55 69.5159 143.542 70.3118 142.4 70.8424C141.191 71.4393 139.982 71.7046 138.638 71.7046C137.295 71.7046 136.153 71.4393 135.078 70.975C133.936 70.5108 132.996 69.8475 132.257 69.0517C131.518 68.2558 130.913 67.261 130.443 66.1998C130.04 65.1387 129.771 63.9449 129.771 62.7511C129.771 61.5573 130.107 59.6339 130.846 58.3075C131.585 56.9147 132.593 55.8536 133.936 55.0577C135.28 54.2618 136.758 53.8639 138.37 53.8639C139.982 53.8639 141.393 54.2618 142.669 54.9914C143.945 55.7209 144.953 56.7821 145.625 58.0422C146.364 59.3023 146.699 60.7614 146.699 62.2868C146.699 63.8122 146.699 62.4858 146.699 62.6847C146.699 62.8174 146.565 62.95 146.431 62.95H130.51L130.578 62.8837ZM138.504 54.5271C137.093 54.5271 135.817 54.8587 134.608 55.5883C133.399 56.3178 132.458 57.2463 131.787 58.3738C131.115 59.5676 130.712 60.8277 130.578 62.2205H146.028C145.96 59.9655 145.222 58.1748 143.811 56.7157C142.4 55.2567 140.587 54.5271 138.504 54.5271Z" fill="#222230"/>
<path d="M159.933 54.3945C159.933 54.5272 159.798 54.6598 159.597 54.5935C159.261 54.5935 158.925 54.5272 158.589 54.5272C157.38 54.5272 156.238 54.8588 155.231 55.4557C154.156 56.0526 153.35 56.9148 152.678 57.9096C152.073 58.9044 151.737 60.0319 151.737 61.1594V71.1077C151.737 71.3067 151.67 71.373 151.469 71.373H151.267C151.066 71.373 150.999 71.3067 150.999 71.1077V54.5935C150.999 54.3945 151.066 54.3282 151.267 54.3282H151.469C151.67 54.3282 151.737 54.3945 151.737 54.5935V58.5065C152.342 57.18 153.215 56.1189 154.492 55.2567C155.768 54.3945 157.111 53.9966 158.589 53.9966C160.067 53.9966 159.395 53.9966 159.731 53.9966C159.933 53.9966 160 54.1292 159.933 54.3282V54.4608V54.3945Z" fill="#222230"/>
<path d="M93.9007 54.2618H93.6991C93.4976 54.2618 93.4304 54.3282 93.4304 54.5271V59.3023C92.8259 57.6443 91.8183 56.3842 90.4076 55.3893C89.0641 54.3945 87.5191 53.9302 85.7726 53.9302C84.0261 53.9302 82.8169 54.3282 81.5406 55.124C80.2643 55.9199 79.2567 56.9811 78.5178 58.3738C77.846 59.5676 77.5102 60.8277 77.443 62.2205H73.211V54.5935C73.211 54.3945 73.1438 54.3282 72.9423 54.3282H72.7408C72.5393 54.3282 72.4721 54.3945 72.4721 54.5935V59.3686C71.8675 57.7106 70.8599 56.4505 69.4493 55.4556C68.1058 54.4608 66.5608 53.9966 64.8143 53.9966C63.0677 53.9966 61.8586 54.3945 60.5823 55.1904C59.306 55.9862 58.2984 57.0474 57.5594 58.4401C56.8205 59.8329 56.4175 61.292 56.4175 62.8837C56.4175 64.4755 56.8205 66.0009 57.5594 67.3273C58.2984 68.6537 59.306 69.7812 60.5823 70.5771C61.8586 71.373 63.2692 71.7709 64.8143 71.7709C66.3593 71.7709 68.0386 71.3066 69.4493 70.3118C70.7928 69.317 71.8004 67.9905 72.4721 66.3988V71.9699C72.4721 73.8269 71.8004 75.4186 70.5241 76.6124C69.2477 77.8062 67.5684 78.4031 65.5532 78.4031C63.5379 78.4031 60.7838 77.4083 59.0373 75.4186C58.9029 75.286 58.7686 75.286 58.7014 75.4186L58.5671 75.5512C58.4327 75.6839 58.4327 75.8165 58.5671 75.8829C60.5151 77.9388 62.8662 79 65.6203 79C68.3745 79 69.6508 78.3368 71.1286 77.0103C72.5393 75.6839 73.2782 73.9595 73.2782 71.9035V62.8174H77.443C77.443 64.4091 77.846 65.8682 78.5178 67.261C79.2567 68.6537 80.2643 69.7149 81.5406 70.5108C82.8169 71.3066 84.2276 71.7046 85.7726 71.7046C87.3176 71.7046 88.997 71.2403 90.4076 70.2455C91.7511 69.2506 92.7587 67.9242 93.4304 66.3325V71.1077C93.4304 71.3066 93.4976 71.373 93.6991 71.373H93.9007C94.1022 71.373 94.1694 71.3066 94.1694 71.1077V54.5935C94.1694 54.3945 94.1022 54.3282 93.9007 54.3282V54.2618ZM71.5317 66.9294C70.8599 68.1895 69.9867 69.1843 68.7775 69.9139C67.6356 70.6434 66.2921 71.0413 64.8814 71.0413C63.4708 71.0413 62.1945 70.6434 60.9853 69.9139C59.8434 69.1843 58.9029 68.1895 58.2312 66.9294C57.5594 65.6693 57.2236 64.2765 57.2236 62.7511C57.2236 61.2257 57.5594 59.8329 58.2312 58.5728C58.9029 57.3127 59.8434 56.3178 60.9853 55.5883C62.1273 54.8587 63.4708 54.4608 64.8814 54.4608C67.031 54.4608 68.8447 55.2567 70.3225 56.8484C71.666 58.3075 72.4049 60.0319 72.4721 62.0879H59.2388C59.0373 62.0879 58.9029 62.2205 58.9029 62.4195C58.9029 62.6184 59.0373 62.7511 59.2388 62.7511H72.4721C72.4721 64.2102 72.1362 65.6029 71.4645 66.863L71.5317 66.9294ZM92.4228 66.9294C91.7511 68.1895 90.8778 69.1843 89.6687 69.9139C88.5267 70.6434 87.1833 71.0413 85.7726 71.0413C84.3619 71.0413 83.0856 70.6434 81.8765 69.9139C80.7345 69.1843 79.7941 68.1895 79.1224 66.9294C78.4506 65.6693 78.1147 64.2765 78.1147 62.8174H91.3481C91.5496 62.8174 91.6839 62.6848 91.6839 62.4858C91.6839 62.2868 91.5496 62.1542 91.3481 62.1542H78.1147C78.1819 60.8941 78.5178 59.7003 79.0552 58.6391C79.7269 57.379 80.6674 56.3842 81.8093 55.6546C82.9513 54.9251 84.2948 54.5271 85.7054 54.5271C87.855 54.5271 89.6687 55.323 91.1465 56.9147C92.6244 58.5065 93.3633 60.4961 93.3633 62.8174C93.3633 65.1387 93.0274 65.7356 92.3557 66.9957L92.4228 66.9294Z" fill="#222230"/>
<path d="M128.025 62.1541H121.644V49.5529C121.644 49.354 121.576 49.2877 121.375 49.2877H121.173C121.039 49.2877 120.905 49.354 120.905 49.5529V62.0878H114.12V60.6287C114.12 58.6391 113.516 56.981 112.306 55.7209C111.097 54.4608 109.418 53.7976 107.403 53.7976C105.387 53.7976 104.581 54.1955 103.305 55.0577C102.029 55.9199 101.088 56.981 100.551 58.3075V54.3945C100.551 54.1955 100.484 54.1292 100.282 54.1292H100.081C99.8792 54.1292 99.812 54.1955 99.812 54.3945V70.9087C99.812 71.1076 99.8792 71.174 100.081 71.174H100.282C100.484 71.174 100.551 71.1076 100.551 70.9087V60.9604C100.551 59.8329 100.887 58.7717 101.491 57.7106C102.096 56.7157 102.969 55.8536 104.044 55.2567C105.119 54.6598 106.261 54.3281 107.403 54.3281C109.284 54.3281 110.694 54.925 111.769 56.1188C112.844 57.3126 113.381 58.7717 113.381 60.5624V61.9552H102.297C102.096 61.9552 101.962 62.0878 101.962 62.2868C101.962 62.4858 102.096 62.6184 102.297 62.6184H113.381V70.8424C113.381 71.0413 113.448 71.1076 113.65 71.1076H113.851C114.053 71.1076 114.12 71.0413 114.12 70.8424V62.6184H120.905V66.3324C120.905 68.0568 121.308 69.3169 122.181 70.1791C123.054 71.0413 124.263 71.5056 125.943 71.5056C127.622 71.5056 126.816 71.5056 127.421 71.4392C127.555 71.4392 127.689 71.3066 127.689 71.174V71.0413C127.689 70.8423 127.622 70.776 127.421 70.8424C127.018 70.8424 126.547 70.9087 126.01 70.9087C123.189 70.9087 121.711 69.3833 121.711 66.3324V62.6184H128.092C128.294 62.6184 128.428 62.4858 128.428 62.2868C128.428 62.0878 128.294 61.9552 128.092 61.9552L128.025 62.1541Z" fill="#222230"/>
<path d="M112.575 30.3196C112.441 30.1869 112.239 30.3195 112.105 30.3859C112.038 30.5185 111.97 30.5848 111.903 30.7175C108.343 35.8243 102.566 38.9414 96.386 38.9414C90.206 38.9414 95.8487 38.9414 95.5128 38.9414C99.9463 37.7476 103.842 35.0284 106.529 31.1154C106.597 30.9828 106.664 30.9164 106.731 30.7838C106.798 30.6512 106.731 30.4522 106.664 30.3196C106.529 30.2532 106.328 30.3195 106.193 30.3859C106.126 30.5185 106.059 30.5848 105.992 30.7175C103.036 35.0284 98.4684 37.8803 93.3632 38.6761C91.751 38.4108 90.206 37.9466 88.7282 37.2834C94.9082 33.9673 99.2074 27.4014 99.2074 19.7743C99.2074 12.1473 94.841 5.38243 88.1908 2.06632C88.1908 2.06632 88.0564 2 87.9893 2C87.9221 2 87.8549 2 87.7877 2.06632C86.8473 2.53058 85.9069 3.12748 85.0336 3.72438C84.1603 3.12748 83.2871 2.53058 82.2795 2.06632C82.2795 2.06632 82.1451 2 82.0779 2C82.0108 2 81.9436 2 81.8764 2.06632C75.2262 5.38243 70.927 12.3463 70.927 19.8407C70.927 27.3351 75.159 33.9673 81.4062 37.3497C79.9284 38.0129 78.3834 38.4772 76.7712 38.7425C71.7331 37.9466 67.1653 35.0947 64.1424 30.7838C64.0752 30.6512 64.0081 30.5848 63.9409 30.4522C63.8066 30.3196 63.605 30.2532 63.4707 30.3859C63.3363 30.5185 63.2692 30.7175 63.4035 30.8501C63.4707 30.9828 63.5379 31.0491 63.605 31.1817C66.292 35.0947 70.1881 37.8139 74.6216 39.0077C74.3529 39.0077 74.0842 39.0077 73.7483 39.0077C67.5683 39.0077 61.7242 35.9569 58.2311 30.7838C58.1639 30.6512 58.0967 30.5848 58.0296 30.4522C57.8952 30.3196 57.6937 30.2532 57.5594 30.3859C57.425 30.5185 57.3578 30.7175 57.4922 30.8501C57.5593 30.9828 57.6265 31.0491 57.6937 31.1817C61.3883 36.4875 67.3668 39.671 73.8155 39.671C80.2642 39.671 75.8307 39.6046 76.8383 39.472C77.7788 39.6046 78.7864 39.671 79.794 39.671C81.6749 39.671 83.4886 39.4057 85.2351 38.8751C86.9817 39.4057 88.7954 39.671 90.6762 39.671C92.5571 39.671 92.6243 39.6046 93.6319 39.472C94.6395 39.6046 95.58 39.671 96.6547 39.671C103.103 39.671 109.082 36.4875 112.777 31.1817C112.844 31.0491 112.911 30.9828 112.978 30.8501C113.112 30.7175 112.978 30.5185 112.911 30.3859L112.575 30.3196ZM87.9221 2.72954C94.3036 5.91301 98.4684 12.6115 98.4684 19.8407C98.4684 27.0698 94.1693 33.8346 87.9221 36.9518C87.116 36.5538 86.3099 36.0233 85.5038 35.4927C90.206 31.845 93.1617 26.2076 93.1617 19.8407C93.1617 13.4737 90.206 7.83635 85.5038 4.12231C86.2427 3.59173 87.0488 3.12748 87.9221 2.66322V2.72954ZM87.1832 37.3497C86.4443 37.6813 85.7053 37.9466 84.9664 38.1456C84.2275 37.9466 83.4886 37.615 82.7497 37.3497C83.4886 36.9518 84.2275 36.4875 84.9664 35.9569C85.6382 36.4875 86.3771 36.9518 87.1832 37.3497ZM84.9664 35.1611C80.3986 31.646 77.3757 26.1413 77.3757 19.907C77.3757 13.6727 80.2642 8.23428 84.9664 4.65289C89.6686 8.23428 92.5571 13.8717 92.5571 19.907C92.5571 25.9423 89.6014 31.7123 84.9664 35.1611ZM71.4644 19.907C71.4644 12.6779 75.6292 5.97933 82.0108 2.79587C82.884 3.1938 83.6229 3.72438 84.429 4.25495C79.6597 7.96899 76.7712 13.739 76.7712 19.9733C76.7712 26.2076 79.794 32.0439 84.429 35.6916C83.6901 36.2222 82.884 36.6865 82.0108 37.1507C75.7636 34.0336 71.4644 27.534 71.4644 20.0396V19.907ZM79.5253 39.0077C79.2566 39.0077 78.9879 39.0077 78.7192 39.0077C79.8612 38.6761 80.936 38.2782 82.0108 37.814C82.6153 38.0792 83.2199 38.3445 83.8245 38.5435C82.481 38.8751 81.0703 39.0077 79.5925 39.0077H79.5253ZM90.3404 39.0077C88.8625 39.0077 87.4519 38.8088 86.1084 38.5435C86.713 38.3445 87.3175 38.0792 87.9221 37.814C88.9969 38.3445 90.0717 38.7425 91.2136 39.0077C90.9449 39.0077 90.6762 39.0077 90.4075 39.0077H90.3404Z" fill="#222230"/>
</g>
<defs>
<clipPath id="clip0_898_1234">
<rect width="150" height="77" fill="white" transform="translate(10 2)"/>
</clipPath>
</defs>
</svg>
